<?xml version="1.0" standalone="no"?>
<!DOCTYPE svg PUBLIC "-//W3C//DTD SVG 20010904//EN"
 "http://www.w3.org/TR/2001/REC-SVG-20010904/DTD/svg10.dtd">
<svg version="1.0" xmlns="http://www.w3.org/2000/svg"
 width="128.000000pt" height="128.000000pt" viewBox="0 0 128.000000 128.000000"
 preserveAspectRatio="xMidYMid meet">
<metadata>
Created by potrace 1.11, written by Peter Selinger 2001-2013
</metadata>
<g transform="translate(0.000000,128.000000) scale(0.100000,-0.100000)"
fill="#000000" stroke="none">
<path d="M0 640 l0 -640 640 0 640 0 0 640 0 640 -640 0 -640 0 0 -640z m1250
-15 l0 -595 -591 0 -591 0 587 595 c323 327 589 595 591 595 2 0 4 -268 4
-595z m-575 495 c13 -14 16 -28 11 -54 -8 -43 -51 -96 -77 -96 -21 0 -49 42
-31 48 23 7 62 44 62 58 0 22 -68 17 -126 -10 -92 -43 -106 -93 -50 -185 54
-88 52 -129 -5 -195 -73 -83 -157 -111 -232 -78 -80 35 -96 93 -46 163 31 44
55 54 85 34 30 -20 30 -29 0 -43 -34 -15 -59 -56 -51 -81 14 -46 131 -38 177
11 39 42 37 88 -7 158 -41 63 -45 107 -15 155 60 96 255 170 305 115z"/>
<path d="M1119 666 c35 -37 34 -107 -2 -168 -56 -97 -183 -179 -288 -186 l-57
-4 -31 -67 c-17 -37 -31 -73 -31 -80 0 -8 -7 -10 -20 -6 -25 8 -26 -6 -1 -36
19 -23 20 -23 26 -4 4 11 21 50 37 86 l30 66 58 6 c119 10 270 112 316 212 40
85 26 167 -33 194 l-28 13 24 -26z"/>
<path d="M968 653 c-21 -5 -22 -7 -6 -32 10 -17 6 -28 -34 -78 -51 -65 -128
-182 -128 -194 0 -21 34 9 68 60 20 30 59 83 85 115 26 33 45 66 42 73 -3 7
-8 20 -11 28 -5 12 1 15 27 15 18 0 30 2 28 4 -8 7 -55 13 -71 9z"/>
<path d="M849 586 c-66 -50 -169 -189 -169 -228 0 -23 -26 -23 -39 0 -9 15
-10 15 -11 -4 0 -25 23 -48 42 -42 7 3 20 26 29 52 11 33 41 76 95 135 122
133 130 146 53 87z"/>
</g>
</svg>
