<?xml version="1.0" encoding="UTF-8"?>
<svg width="285.1" height="73.148" version="1.1" viewBox="0 0 285.1 73.148" xml:space="preserve" xmlns="http://www.w3.org/2000/svg" xmlns:cc="http://creativecommons.org/ns#" xmlns:dc="http://purl.org/dc/elements/1.1/" xmlns:rdf="http://www.w3.org/1999/02/22-rdf-syntax-ns#"><metadata><rdf:RDF><cc:Work rdf:about=""><dc:format>image/svg+xml</dc:format><dc:type rdf:resource="http://purl.org/dc/dcmitype/StillImage"/><dc:title/></cc:Work></rdf:RDF></metadata><defs><clipPath id="clipPath22"><path d="m0 252h360v-252h-360z"/></clipPath></defs><g transform="matrix(1.3333 0 0 -1.3333 -104.35 205.52)"><g transform="translate(148.44 104.72)"><path d="m0 0-2.163 4.903-2.162-4.903zm-5.142-1.856-1.192-2.707h-2.145l5.244 11.901h2.145l5.244-11.901h-2.145l-1.192 2.707z" fill="#414042"/></g><g clip-path="url(#clipPath22)"><g transform="translate(157.85 110.49)"><path d="m0 0c-0.585 0-1.064-0.118-1.439-0.357-0.375-0.238-0.561-0.599-0.561-1.082 0-0.482 0.186-0.85 0.561-1.106s1.172-0.531 2.393-0.826c1.219-0.295 2.139-0.709 2.758-1.242 0.619-0.535 0.928-1.321 0.928-2.359 0-1.039-0.392-1.881-1.175-2.529-0.783-0.647-1.811-0.97-3.082-0.97-1.862 0-3.513 0.642-4.955 1.924l1.26 1.515c1.203-1.044 2.452-1.566 3.746-1.566 0.647 0 1.161 0.139 1.541 0.417s0.571 0.647 0.571 1.107c0 0.459-0.179 0.817-0.537 1.073-0.357 0.255-0.973 0.487-1.847 0.697-0.874 0.211-1.538 0.404-1.992 0.579-0.454 0.176-0.858 0.407-1.209 0.69-0.704 0.534-1.056 1.35-1.056 2.452 0 1.101 0.4 1.95 1.201 2.545 0.8 0.596 1.79 0.894 2.971 0.894 0.76 0 1.515-0.125 2.264-0.374 0.749-0.251 1.396-0.602 1.941-1.056l-1.073-1.516c-0.351 0.318-0.828 0.579-1.43 0.784-0.602 0.204-1.194 0.306-1.779 0.306" fill="#414042"/></g><g transform="translate(168.57 110.49)"><path d="m0 0c-0.585 0-1.064-0.118-1.439-0.357-0.375-0.238-0.561-0.599-0.561-1.082 0-0.482 0.186-0.85 0.561-1.106s1.172-0.531 2.393-0.826c1.219-0.295 2.139-0.709 2.758-1.242 0.619-0.535 0.928-1.321 0.928-2.359 0-1.039-0.392-1.881-1.175-2.529-0.783-0.647-1.811-0.97-3.082-0.97-1.862 0-3.513 0.642-4.955 1.924l1.26 1.515c1.203-1.044 2.452-1.566 3.746-1.566 0.647 0 1.161 0.139 1.541 0.417s0.571 0.647 0.571 1.107c0 0.459-0.179 0.817-0.537 1.073-0.357 0.255-0.973 0.487-1.847 0.697-0.874 0.211-1.538 0.404-1.992 0.579-0.454 0.176-0.858 0.407-1.209 0.69-0.704 0.534-1.056 1.35-1.056 2.452 0 1.101 0.4 1.95 1.201 2.545 0.8 0.596 1.79 0.894 2.971 0.894 0.76 0 1.515-0.125 2.264-0.374 0.749-0.251 1.396-0.602 1.941-1.056l-1.073-1.516c-0.351 0.318-0.828 0.579-1.43 0.784-0.602 0.204-1.194 0.306-1.779 0.306" fill="#414042"/></g><g transform="translate(184.06 112.06)"><path d="m0 0v-1.889h-6.351v-3.15h5.704v-1.788h-5.704v-3.184h6.555v-1.89h-8.565v11.901z" fill="#414042"/></g><g transform="translate(191.33 110.22)"><path d="m0 0v-10.063h-2.009v10.063h-3.609v1.838h9.228v-1.838z" fill="#414042"/></g><g transform="translate(203.79 100.16)"><path d="m0 0h-2.01v11.901h3.134l3.593-7.474 3.592 7.474h3.116v-11.901h-2.009v9.296l-4.155-8.258h-1.123l-4.138 8.258z" fill="#414042"/></g><g transform="translate(225.35 104.72)"><path d="m0 0-2.163 4.903-2.161-4.903zm-5.142-1.856-1.192-2.707h-2.145l5.244 11.901h2.145l5.244-11.901h-2.145l-1.192 2.707z" fill="#414042"/></g><g transform="translate(240.08 112.06)"><path d="m0 0h2.009v-11.901h-2.18l-6.742 8.683v-8.683h-2.01v11.901h2.01l6.913-8.888z" fill="#414042"/></g><g transform="translate(252.22 104.72)"><path d="m0 0-2.163 4.903-2.161-4.903zm-5.142-1.856-1.192-2.707h-2.145l5.244 11.901h2.145l5.244-11.901h-2.145l-1.192 2.707z" fill="#414042"/></g><g transform="translate(266.26 105.95)"><path d="m0 0h2.009v-4.069c-1.124-1.238-2.73-1.856-4.818-1.856-1.761 0-3.233 0.579-4.419 1.736-1.186 1.158-1.779 2.623-1.779 4.393 0 1.772 0.604 3.246 1.813 4.428 1.209 1.18 2.67 1.771 4.385 1.771 1.713 0 3.138-0.5 4.273-1.498l-1.073-1.533c-0.466 0.397-0.933 0.672-1.404 0.826-0.472 0.153-1.019 0.23-1.643 0.23-1.204 0-2.214-0.389-3.031-1.168-0.818-0.777-1.226-1.799-1.226-3.064 0-1.266 0.397-2.281 1.192-3.048 0.794-0.766 1.756-1.149 2.886-1.149s2.074 0.244 2.835 0.732z" fill="#414042"/></g><g transform="translate(279.27 112.06)"><path d="m0 0v-1.889h-6.351v-3.15h5.704v-1.788h-5.704v-3.184h6.555v-1.89h-8.565v11.901z" fill="#414042"/></g><g transform="translate(288.87 106.51)"><path d="m0 0c0.408 0.351 0.613 0.916 0.613 1.694 0 0.777-0.211 1.311-0.63 1.6-0.42 0.29-1.17 0.434-2.248 0.434h-2.554v-4.256h2.503c1.136 0 1.908 0.176 2.316 0.528m2.673 1.685c0-1.964-0.857-3.2-2.571-3.712l3.116-4.324h-2.554l-2.843 4h-2.64v-4h-2.009v11.901h4.427c1.816 0 3.116-0.306 3.899-0.919s1.175-1.595 1.175-2.946" fill="#414042"/></g><g transform="translate(161.21 132.92)"><path d="m0 0c-1.541 1.325-3.87 2.373-6.924 3.112-3.181 0.769-5.206 1.472-6.189 2.145-1.032 0.7-1.555 1.725-1.555 3.045 0 1.328 0.527 2.333 1.562 2.991 0.993 0.632 2.276 0.954 3.814 0.954 1.509 0 3.068-0.269 4.627-0.797 1.438-0.49 2.619-1.113 3.509-1.856l2.422 3.416c-1.322 1.057-2.892 1.893-4.67 2.485-1.876 0.624-3.792 0.94-5.694 0.94-2.933 0-5.429-0.747-7.415-2.225-1.958-1.46-2.951-3.571-2.951-6.275 0-2.706 0.869-4.736 2.583-6.037 0.881-0.711 1.895-1.288 3.019-1.723 1.135-0.44 2.835-0.933 5.047-1.467 2.29-0.551 3.864-1.149 4.807-1.824 0.983-0.701 1.481-1.696 1.481-2.956 0-1.258-0.527-2.282-1.566-3.043-1.018-0.741-2.396-1.117-4.093-1.117-3.276 0-6.478 1.307-9.521 3.884l-2.867-3.451c3.559-3.096 7.684-4.664 12.261-4.664 3.16 0 5.747 0.811 7.688 2.41 1.922 1.591 2.898 3.69 2.898 6.242 0 2.554-0.764 4.508-2.273 5.811" fill="#3273dc"/></g><path d="m168.71 118.8h4.581v29.813h-4.581z" fill="#3273dc"/><g transform="translate(196.11 129.2)"><path d="m0 0-9.331 19.42h-7.55v-29.813h4.581v24.587l0.516-1.025 10.476-20.911h2.534l11.035 21.933v-24.584h4.581v29.813h-7.508z" fill="#3273dc"/></g><g transform="translate(251.52 148.62)"><path d="m0 0h-4.58v-29.813h18.435v4.319h-13.855z" fill="#3273dc"/></g><path d="m269.87 144.34h21.302v4.277h-21.302z" fill="#3273dc"/><path d="m269.87 131.67h21.302v4.277h-21.302z" fill="#3273dc"/><g transform="translate(269.87 118.8)"><path d="m0 0h21.302v4.277l-21.302-0.027z" fill="#3273dc"/></g><g transform="translate(238.94 146.03)"><path d="m0 0c-2.057 1.714-5.387 2.584-9.904 2.584h-10.15v-4.104h10.066c2.824 0 4.937-0.454 6.273-1.346 1.375-0.919 2.075-2.494 2.075-4.68 0-2.161-0.544-3.831-1.615-4.962-1.092-1.153-3.05-1.715-5.995-1.715l-10.804 0.029v-13.035h4.58v8.903h5.659c4.372 0 7.656 0.841 9.755 2.504 2.078 1.644 3.132 4.291 3.132 7.866s-1.033 6.251-3.072 7.956" fill="#3273dc"/></g><g transform="translate(101.37 126.89)"><path d="m0 0c0.079 0.041 0.132 0.184 0.135 0.281 0.013 0.523 6e-3 1.046 6e-3 1.712-0.874-0.463-1.597-0.831-2.3-1.229-0.135-0.077-0.265-0.266-0.275-0.411-0.034-0.475-0.013-0.954-0.013-1.574 0.891 0.441 1.674 0.822 2.447 1.221" fill="#3273dc"/></g><g transform="translate(99.063 119.38)"><path d="m0 0c-0.088-0.05-0.133-0.218-0.137-0.332-0.015-0.481-6e-3 -0.962-6e-3 -1.543 0.856 0.405 1.632 0.764 2.396 1.145 0.097 0.048 0.179 0.207 0.182 0.318 0.019 0.537 9e-3 1.076 9e-3 1.74-0.906-0.488-1.682-0.897-2.444-1.328" fill="#3273dc"/></g><g transform="translate(101.43 124.76)"><path d="m0 0c-0.793-0.43-1.526-0.818-2.246-1.228-0.12-0.068-0.243-0.229-0.25-0.353-0.029-0.489-0.012-0.981-0.012-1.494 2.33 0.639 2.708 1.079 2.566 2.901-1e-3 0.022-0.013 0.042-0.058 0.174" fill="#3273dc"/></g><g transform="translate(99.082 135.76)"><path d="m0 0c-0.091-0.054-0.151-0.211-0.155-0.323-0.017-0.476-7e-3 -0.954-7e-3 -1.551 0.87 0.414 1.643 0.773 2.402 1.154 0.098 0.049 0.174 0.216 0.179 0.33 0.018 0.525 8e-3 1.05 8e-3 1.77-0.909-0.513-1.675-0.937-2.427-1.38" fill="#3273dc"/></g><g transform="translate(101.32 143.06)"><path d="m0 0c0.097 0.049 0.173 0.214 0.177 0.328 0.019 0.522 8e-3 1.045 8e-3 1.718-0.878-0.479-1.647-0.89-2.403-1.32-0.096-0.054-0.171-0.208-0.176-0.319-0.019-0.477-8e-3 -0.956-8e-3 -1.565 0.87 0.415 1.642 0.775 2.402 1.158" fill="#3273dc"/></g><g transform="translate(101.49 148.88)"><path d="m0 0c-1e-3 0.021-0.014 0.042-0.037 0.108-2.278-0.704-2.771-1.306-2.455-2.96 2.19 0.543 2.604 1.017 2.492 2.852" fill="#3273dc"/></g><g transform="translate(100.39 138.62)"><path d="m0 0c0.013-7e-3 0.024-0.013 0.037-0.02 0.4 0.182 0.674 0.337 0.863 0.515l0.025 0.014-7e-3 3e-3c0.382 0.373 0.361 0.86 0.097 1.95-0.795-0.443-1.564-0.864-2.32-1.304-0.095-0.055-0.167-0.211-0.172-0.323-0.019-0.473-8e-3 -0.946-8e-3 -1.419 0.091-0.028 0.182-0.055 0.273-0.083z" fill="#3273dc"/></g><g transform="translate(102.65 133.57)"><path d="m0 0c-1.625-0.568-3.234-1.178-4.851-1.767-0.106-0.039-0.226-0.043-0.436-0.081-0.034 0.238-0.09 0.442-0.09 0.646-1e-3 2.477 0.011 4.953 0.011 7.43 0 2.875 2e-3 5.75-0.025 8.624-5e-3 0.519 0.126 0.85 0.667 1.094 1.725 0.78 3.424 1.607 5.267 2.478 0.021-0.346 0.042-0.541 0.042-0.736 2e-3 -5.596-3e-3 -11.192 0.01-16.788 1e-3 -0.446-0.099-0.727-0.595-0.9m18.64-32.456s-1e-3 0-2e-3 1e-3v0.764c0 1.112 2e-3 2.224 2e-3 3.335v9.348h5e-3c2e-3 1.419-1e-3 2.838 3e-3 4.257 1e-3 0.465-0.136 0.758-0.572 1.024-1.37 0.838-2.681 1.759-4.063 2.579-0.688 0.408-0.911 0.887-0.907 1.628 0.032 5.181 0.011 10.363 0.027 15.544 2e-3 0.488-0.122 0.819-0.591 1.097-0.783 0.462-1.497 1.021-2.273 1.494-0.575 0.35-0.806 0.78-0.789 1.422 0.04 1.593-0.021 3.189 0.029 4.782 0.02 0.614-0.221 0.972-0.758 1.286-2.395 1.4-4.781 2.812-7.147 4.252-0.446 0.271-0.811 0.279-1.252 0.07-2.401-1.135-4.793-2.288-7.218-3.376-0.58-0.26-0.722-0.565-0.72-1.115 0.018-6.2 2e-3 -12.4 0.028-18.6 2e-3 -0.578-0.219-0.892-0.741-1.133-0.574-0.265-1.121-0.58-1.683-0.865-0.45-0.227-0.655-0.513-0.647-1.042 0.04-2.945 0-5.891 0.036-8.835 7e-3 -0.565-0.196-0.884-0.699-1.156-1.172-0.632-2.302-1.332-3.486-1.943-0.48-0.249-0.588-0.544-0.587-1.008 0.014-4.982 0.01-9.965 7e-3 -14.947 0-0.148-0.012-0.296-0.025-0.443h1.675c0.025 4.78 0.018 9.56 0.011 14.341-1e-3 0.396 0.043 0.703 0.494 0.915 1.209 0.569 2.39 1.188 3.589 1.775 0.179 0.088 0.394 0.116 0.698 0.202v-0.729c0-5.502 1e-3 -11.003 0-16.504h6.434l2e-3 1.283c4e-3 0.109 0.014 0.218 0.014 0.327 2e-3 1.795-1e-3 3.589-4e-3 5.384v0.163h-1e-3c-3e-3 2.157-7e-3 4.315-1e-3 6.473 1e-3 0.423-0.127 0.665-0.527 0.888-1.712 0.953-3.408 1.933-5.087 2.934-0.212 0.126-0.416 0.438-0.419 0.665-0.027 3.077-0.031 6.154 7e-3 9.231 3e-3 0.245 0.297 0.587 0.554 0.713 1.79 0.872 3.606 1.699 5.415 2.54 1.001 0.466 2.003 0.931 3.006 1.392 0.143 0.066 0.296 0.112 0.539 0.203 0.016-0.304 0.038-0.537 0.038-0.77 2e-3 -10.475 2e-3 -20.951 1e-3 -31.426h3.759c0 6.598 3e-3 13.196-0.011 19.794-2e-3 0.515 0.162 0.781 0.676 1.004 1.871 0.812 3.714 1.677 5.773 2.616v-0.967c0-7.482-2e-3 -14.965 0.013-22.447h7.375z" fill="#3273dc"/></g><g transform="translate(115.44 149.4)"><path d="m0 0c0.069-0.358 0.107-0.728 0.095-1.116-0.024-0.794-0.019-1.586-0.016-2.379 1e-3 -0.103 0-0.207 1e-3 -0.31h10.552v-42.358h-43.509v42.358h9.142c-1e-3 1.268-1e-3 2.537-5e-3 3.805h-13.431v-50.12h52.042v50.12z" fill="#3273dc"/></g></g></g></svg>
